# xmcd
#
# Track frame offsets:
#	150
#	12321
#	24811
#	36988
#	49572
#	62088
#	74725
#	86869
#	100077
#	115986
#	128833
#	138040
#	148534
#	159988
#	169861
#	183125
#	196544
#	210333
#	223854
#	236558
#	249603
#	258197
#	270768
#	287032
#	295530
#	306363
#	319065
#	331034
#
# Disc length: 4599 seconds
#
# Revision: 0
# Processed by: cddbd v1.5.1PL2 Copyright (c) Steve Scherf et al.
# Submitted via: EasyCDDAExtractor 4.6.9.1
#
DISCID=8611f51c
DTITLE=Hank Williams And His Drifting Cowboys - Jambalaya
DYEAR=2003
DGENRE=Country
TTITLE0=I Saw The Light
TTITLE1=Never Again (Will I Knock On Your Door)
TTITLE2=Dear Brother
TTITLE3=How Can You Refuse Him Now
TTITLE4=When God Comes And Gathers His Jewels
TTITLE5=My Sweet Love Ain't Around
TTITLE6=Lost Highway
TTITLE7=Too Many Parties And Too Many Pals
TTITLE8=Thy Burdens Are Greater Than Mine
TTITLE9=The Pale Horse And His Rider
TTITLE10=I'll Have A New Body
TTITLE11=A House Of Gold
TTITLE12=The Angel Of Death
TTITLE13=Are You Building A Temple In Heaven
TTITLE14=Be Careful Of Stones That You Throw
TTITLE15=I Dreamed About Mama Last Night
TTITLE16=The Funeral
TTITLE17=Beyond The Sunset
TTITLE18=Pictures From Life's Other Side
TTITLE19=Help Me Understand
TTITLE20=Where The Soul Of Man Never Dies
TTITLE21=Wait For The Light To Shine
TTITLE22=Tramp On The Street
TTITLE23=I'm Gonna Sing
TTITLE24=The Prodigal Son
TTITLE25=Are You Walking And A-Talking For The Lord
TTITLE26=A Message To My Mother
TTITLE27=Men With Broken Hearts
EXTD=
EXTT0=
EXTT1=
EXTT2=
EXTT3=
EXTT4=
EXTT5=
EXTT6=
EXTT7=
EXTT8=
EXTT9=
EXTT10=
EXTT11=
EXTT12=
EXTT13=
EXTT14=
EXTT15=
EXTT16=
EXTT17=
EXTT18=
EXTT19=
EXTT20=
EXTT21=
EXTT22=
EXTT23=
EXTT24=
EXTT25=
EXTT26=
EXTT27=
PLAYORDER=
